<mxfile host="app.diagrams.net" modified="2020-05-26T07:07:56.632Z" agent="5.0 (Macintosh; Intel Mac OS X 10_15_3) AppleWebKit/537.36 (KHTML, like Gecko) Chrome/81.0.4044.138 Safari/537.36" etag="K9z1Rpku9Y4_WMVyc2W_" version="13.1.3" type="github">
  <diagram id="R1Z05BGr4TgSDHtd-65_" name="Page-1">
    <mxGraphModel dx="906" dy="590" grid="1" gridSize="10" guides="1" tooltips="1" connect="1" arrows="1" fold="1" page="1" pageScale="1" pageWidth="827" pageHeight="1169" math="0" shadow="0">
      <root>
        <mxCell id="0" />
        <mxCell id="1" parent="0" />
        <mxCell id="YicJnZiJMWdcynEzoA1y-6" style="edgeStyle=orthogonalEdgeStyle;rounded=0;orthogonalLoop=1;jettySize=auto;html=1;entryX=0;entryY=0.5;entryDx=0;entryDy=0;startArrow=classic;startFill=1;" edge="1" parent="1" source="YicJnZiJMWdcynEzoA1y-1" target="YicJnZiJMWdcynEzoA1y-2">
          <mxGeometry relative="1" as="geometry" />
        </mxCell>
        <mxCell id="YicJnZiJMWdcynEzoA1y-8" style="edgeStyle=orthogonalEdgeStyle;rounded=0;orthogonalLoop=1;jettySize=auto;html=1;entryX=0.5;entryY=0;entryDx=0;entryDy=0;startArrow=classic;startFill=1;" edge="1" parent="1" source="YicJnZiJMWdcynEzoA1y-1" target="YicJnZiJMWdcynEzoA1y-3">
          <mxGeometry relative="1" as="geometry" />
        </mxCell>
        <mxCell id="YicJnZiJMWdcynEzoA1y-1" value="需求jira" style="rounded=1;whiteSpace=wrap;html=1;fillColor=#dae8fc;strokeColor=#6c8ebf;" vertex="1" parent="1">
          <mxGeometry x="180" y="80" width="120" height="60" as="geometry" />
        </mxCell>
        <mxCell id="YicJnZiJMWdcynEzoA1y-14" style="edgeStyle=orthogonalEdgeStyle;rounded=0;orthogonalLoop=1;jettySize=auto;html=1;entryX=0.5;entryY=0;entryDx=0;entryDy=0;startArrow=classic;startFill=1;" edge="1" parent="1" source="YicJnZiJMWdcynEzoA1y-2" target="YicJnZiJMWdcynEzoA1y-4">
          <mxGeometry relative="1" as="geometry" />
        </mxCell>
        <mxCell id="YicJnZiJMWdcynEzoA1y-2" value="需求文档" style="rounded=1;whiteSpace=wrap;html=1;fillColor=#dae8fc;strokeColor=#6c8ebf;" vertex="1" parent="1">
          <mxGeometry x="410" y="80" width="120" height="60" as="geometry" />
        </mxCell>
        <mxCell id="YicJnZiJMWdcynEzoA1y-10" style="edgeStyle=orthogonalEdgeStyle;rounded=0;orthogonalLoop=1;jettySize=auto;html=1;entryX=0;entryY=0.5;entryDx=0;entryDy=0;startArrow=classic;startFill=1;" edge="1" parent="1" source="YicJnZiJMWdcynEzoA1y-3" target="YicJnZiJMWdcynEzoA1y-4">
          <mxGeometry relative="1" as="geometry" />
        </mxCell>
        <mxCell id="YicJnZiJMWdcynEzoA1y-3" value="开发jira" style="rounded=1;whiteSpace=wrap;html=1;fillColor=#dae8fc;strokeColor=#6c8ebf;" vertex="1" parent="1">
          <mxGeometry x="180" y="220" width="120" height="60" as="geometry" />
        </mxCell>
        <mxCell id="YicJnZiJMWdcynEzoA1y-12" style="edgeStyle=orthogonalEdgeStyle;rounded=0;orthogonalLoop=1;jettySize=auto;html=1;entryX=0;entryY=0.5;entryDx=0;entryDy=0;startArrow=none;startFill=0;" edge="1" parent="1" source="YicJnZiJMWdcynEzoA1y-4" target="YicJnZiJMWdcynEzoA1y-5">
          <mxGeometry relative="1" as="geometry" />
        </mxCell>
        <mxCell id="YicJnZiJMWdcynEzoA1y-4" value="技术文档" style="rounded=1;whiteSpace=wrap;html=1;fillColor=#dae8fc;strokeColor=#6c8ebf;" vertex="1" parent="1">
          <mxGeometry x="410" y="220" width="120" height="60" as="geometry" />
        </mxCell>
        <mxCell id="YicJnZiJMWdcynEzoA1y-5" value="代码分支" style="rounded=1;whiteSpace=wrap;html=1;fillColor=#dae8fc;strokeColor=#6c8ebf;" vertex="1" parent="1">
          <mxGeometry x="637" y="220" width="120" height="60" as="geometry" />
        </mxCell>
        <mxCell id="YicJnZiJMWdcynEzoA1y-7" value="关联" style="text;html=1;align=center;verticalAlign=middle;resizable=0;points=[];autosize=1;" vertex="1" parent="1">
          <mxGeometry x="330" y="80" width="40" height="20" as="geometry" />
        </mxCell>
        <mxCell id="YicJnZiJMWdcynEzoA1y-9" value="关联" style="text;html=1;align=center;verticalAlign=middle;resizable=0;points=[];autosize=1;" vertex="1" parent="1">
          <mxGeometry x="200" y="170" width="40" height="20" as="geometry" />
        </mxCell>
        <mxCell id="YicJnZiJMWdcynEzoA1y-11" value="关联" style="text;html=1;align=center;verticalAlign=middle;resizable=0;points=[];autosize=1;" vertex="1" parent="1">
          <mxGeometry x="330" y="250" width="40" height="20" as="geometry" />
        </mxCell>
        <mxCell id="YicJnZiJMWdcynEzoA1y-13" value="关联" style="text;html=1;align=center;verticalAlign=middle;resizable=0;points=[];autosize=1;" vertex="1" parent="1">
          <mxGeometry x="560" y="250" width="40" height="20" as="geometry" />
        </mxCell>
        <mxCell id="YicJnZiJMWdcynEzoA1y-15" value="关联" style="text;html=1;align=center;verticalAlign=middle;resizable=0;points=[];autosize=1;" vertex="1" parent="1">
          <mxGeometry x="470" y="170" width="40" height="20" as="geometry" />
        </mxCell>
      </root>
    </mxGraphModel>
  </diagram>
</mxfile>
